#!OML:ASF H:\Martial Arts Walks\Project 1\Capture day 1\Session 1\male.ASF
:FULLY-SPECIFIED
:DEGREES
1224
root -5.97218 10.9433 30.8625 -135.851 80.7404 -142.754
lowerback 21.3509 6.19374 5.07429
upperback -2.5837 9.6492 0.206952
thorax -14.0915 4.00872 -5.73012
lowerneck -1.58387 12.8428 3.77777
upperneck 6.69512 17.3575 -3.49823
head 3.12493 8.63654 -1.10538
rclavicle -1.18376e-013 2.72335e-014
rhumerus 9.58265 62.0275 -58.856
rradius 107.743
rwrist 7.39417
rhand -18.1693 -28.5648
rfingers 7.12502
rthumb 8.10698 -58.3893
lclavicle -1.18376e-013 2.72335e-014
lhumerus -9.77469 7.02568 66.951
lradius 111.558
lwrist 38.4643
lhand -31.3958 19.6381
lfingers 7.12502
lthumb -4.66531 49.5667
rfemur -52.083 -33.2274 2.42312
rtibia 101.012
rfoot -36.7397 -10.5921
rtoes -38.4534
lfemur -68.7711 29.8398 5.15758
ltibia 101.999
lfoot -36.2139 -0.0242237
ltoes -25.719
1225
root -5.97863 10.9676 30.846 -134.992 80.6252 -141.976
lowerback 21.4671 6.17556 5.27035
upperback -2.57359 9.68471 0.213164
thorax -14.1123 4.00747 -5.85485
lowerneck -1.56072 12.8125 3.80965
upperneck 6.54081 17.3071 -3.51567
head 3.07063 8.61225 -1.12565
rclavicle 1.87852e-014 1.13307e-014
rhumerus 9.28893 61.8292 -59.0243
rradius 107.613
rwrist 7.32803
rhand -18.3113 -28.5551
rfingers 7.12502
rthumb 7.9699 -58.3848
lclavicle 1.87852e-014 1.13307e-014
lhumerus -9.62121 6.88181 66.9772
lradius 111.444
lwrist 38.4039
lhand -31.6125 19.6193
lfingers 7.12502
lthumb -4.87456 49.5432
rfemur -52.0579 -33.0369 2.64443
rtibia 100.675
rfoot -36.5822 -10.5327
rtoes -38.3379
lfemur -68.8 29.6939 5.20286
ltibia 101.888
lfoot -36.1393 0.212113
ltoes -25.6963
1226
root -5.98483 10.9937 30.8274 -134.169 80.5007 -141.244
lowerback 21.5735 6.16492 5.37346
upperback -2.54493 9.71165 0.267594
thorax -14.1308 4.01295 -5.87026
lowerneck -1.54866 12.7924 3.88676
upperneck 6.34782 17.2768 -3.67099
head 3.02573 8.59526 -1.1938
rclavicle 2.05742e-014 1.68967e-014
rhumerus 9.08284 61.6259 -59.0465
rradius 107.49
rwrist 7.33594
rhand -18.1409 -28.3886
rfingers 7.12502
rthumb 8.13434 -58.212
lclavicle 2.05742e-014 1.68967e-014
lhumerus -9.40697 6.78892 67.072
lradius 111.357
lwrist 38.4097
lhand -31.3756 19.4928
lfingers 7.12502
lthumb -4.64581 49.4219
rfemur -52.0339 -32.8821 2.88398
rtibia 100.314
rfoot -36.343 -10.7265
rtoes -38.5302
lfemur -68.8367 29.5319 5.23723
ltibia 101.762
lfoot -36.0209 0.373651
ltoes -25.5979
1227
root -5.99139 11.0243 30.8052 -133.517 80.4096 -140.702
lowerback 21.6508 6.09288 5.43787
upperback -2.51585 9.6482 0.342235
thorax -14.1529 3.98141 -5.81144
lowerneck -1.53218 12.8572 3.76584
upperneck 6.22245 17.358 -3.64621
head 2.96804 8.63405 -1.17079
rclavicle -2.9122e-014 2.5842e-015
rhumerus 9.11084 61.6271 -58.8809
rradius 107.372
rwrist 7.24913
rhand -18.0233 -28.299
rfingers 7.12502
rthumb 8.24786 -58.118
lclavicle -2.9122e-014 2.5842e-015
lhumerus -9.35467 6.88399 67.1401
lradius 111.305
lwrist 38.3919
lhand -31.4299 19.7526
lfingers 7.12502
lthumb -4.69821 49.6805
rfemur -51.9978 -32.6741 3.05513
rtibia 99.9082
rfoot -36.1039 -10.7808
rtoes -38.5608
lfemur -68.8651 29.3532 5.22127
ltibia 101.618
lfoot -35.9312 0.229663
ltoes -25.075
1228
root -5.99748 11.0547 30.7829 -132.702 80.2692 -140.022
lowerback 21.6733 6.01534 5.48027
upperback -2.4666 9.5727 0.453326
thorax -14.131 3.95236 -5.68691
lowerneck -1.58705 12.9313 3.69765
upperneck 6.11855 17.4554 -3.71462
head 2.94689 8.6783 -1.1768
rclavicle 2.32578e-014 1.63003e-014
rhumerus 9.37361 61.6258 -58.5256
rradius 107.185
rwrist 7.20592
rhand -18.2136 -28.5829
rfingers 7.12502
rthumb 8.0642 -58.4091
lclavicle 2.32578e-014 1.63003e-014
lhumerus -9.28021 6.99995 67.2278
lradius 111.223
lwrist 38.4374
lhand -31.3177 19.8235
lfingers 7.12502
lthumb -4.58996 49.7538
rfemur -51.9923 -32.4855 3.30555
rtibia 99.488
rfoot -35.8534 -10.8217
rtoes -38.6041
lfemur -68.9592 29.2123 5.20145
ltibia 101.481
lfoot -35.8349 0.364653
ltoes -25.0127
1229
root -6.00333 11.0898 30.7569 -131.899 80.1371 -139.368
lowerback 21.7576 5.98889 5.62206
upperback -2.47076 9.5846 0.471065
thorax -14.1642 3.94441 -5.75929
lowerneck -1.56292 12.925 3.67305
upperneck 5.96543 17.4346 -3.66663
head 2.88149 8.66937 -1.16765
rclavicle 8.16508e-014 -4.47266e-014
rhumerus 9.16543 61.4535 -58.5431
rradius 107.001
rwrist 7.32269
rhand -18.1505 -28.4813
rfingers 7.12502
rthumb 8.1251 -58.3051
lclavicle 8.16508e-014 -4.47266e-014
lhumerus -9.09308 6.76591 67.2465
lradius 111.171
lwrist 38.71
lhand -31.3765 19.9209
lfingers 7.12502
lthumb -4.64674 49.8499
rfemur -51.9625 -32.2726 3.53879
rtibia 99.0139
rfoot -35.6098 -10.848
rtoes -38.6238
lfemur -69.0233 29.0274 5.18804
ltibia 101.315
lfoot -35.7254 0.315
ltoes -24.5467
